<mxfile host="app.diagrams.net" modified="2024-06-13T05:08:51.129Z" agent="Mozilla/5.0 (Windows NT 10.0; Win64; x64; rv:127.0) Gecko/20100101 Firefox/127.0" etag="kpVslEIAeNwEtLBnYBtw" version="24.5.4" type="github">
  <diagram name="Page-1" id="zS7qwJjYgdZEIdMv0VbU">
    <mxGraphModel dx="1434" dy="781" grid="0" gridSize="10" guides="1" tooltips="1" connect="1" arrows="1" fold="1" page="1" pageScale="1" pageWidth="850" pageHeight="1100" math="0" shadow="0">
      <root>
        <mxCell id="0" />
        <mxCell id="1" parent="0" />
        <mxCell id="hLMMLVdRwYM_Ab9e-l-3-1" value="" style="endArrow=none;dashed=1;html=1;dashPattern=1 3;strokeWidth=2;rounded=0;" parent="1" source="hLMMLVdRwYM_Ab9e-l-3-5" edge="1">
          <mxGeometry width="50" height="50" relative="1" as="geometry">
            <mxPoint x="220" y="300" as="sourcePoint" />
            <mxPoint x="85" y="687" as="targetPoint" />
          </mxGeometry>
        </mxCell>
        <mxCell id="hLMMLVdRwYM_Ab9e-l-3-2" value="" style="endArrow=none;dashed=1;html=1;dashPattern=1 3;strokeWidth=2;rounded=0;entryX=0.5;entryY=1;entryDx=0;entryDy=0;" parent="1" target="hLMMLVdRwYM_Ab9e-l-3-6" edge="1">
          <mxGeometry width="50" height="50" relative="1" as="geometry">
            <mxPoint x="220" y="697" as="sourcePoint" />
            <mxPoint x="270" y="250" as="targetPoint" />
          </mxGeometry>
        </mxCell>
        <mxCell id="hLMMLVdRwYM_Ab9e-l-3-3" value="" style="endArrow=none;dashed=1;html=1;dashPattern=1 3;strokeWidth=2;rounded=0;entryX=0.5;entryY=1;entryDx=0;entryDy=0;" parent="1" target="hLMMLVdRwYM_Ab9e-l-3-9" edge="1">
          <mxGeometry width="50" height="50" relative="1" as="geometry">
            <mxPoint x="419" y="700" as="sourcePoint" />
            <mxPoint x="270" y="250" as="targetPoint" />
          </mxGeometry>
        </mxCell>
        <mxCell id="hLMMLVdRwYM_Ab9e-l-3-4" value="" style="endArrow=none;dashed=1;html=1;dashPattern=1 3;strokeWidth=2;rounded=0;entryX=0.5;entryY=1;entryDx=0;entryDy=0;" parent="1" target="hLMMLVdRwYM_Ab9e-l-3-11" edge="1">
          <mxGeometry width="50" height="50" relative="1" as="geometry">
            <mxPoint x="619" y="708" as="sourcePoint" />
            <mxPoint x="270" y="250" as="targetPoint" />
          </mxGeometry>
        </mxCell>
        <mxCell id="hLMMLVdRwYM_Ab9e-l-3-5" value="&lt;div&gt;Администратор&lt;/div&gt;" style="shape=umlActor;verticalLabelPosition=bottom;verticalAlign=top;html=1;outlineConnect=0;align=center;horizontal=1;labelPosition=center;" parent="1" vertex="1">
          <mxGeometry x="70" y="20" width="30" height="60" as="geometry" />
        </mxCell>
        <mxCell id="hLMMLVdRwYM_Ab9e-l-3-6" value="i: Интерфейс" style="rounded=0;whiteSpace=wrap;html=1;" parent="1" vertex="1">
          <mxGeometry x="160" y="20" width="120" height="60" as="geometry" />
        </mxCell>
        <mxCell id="hLMMLVdRwYM_Ab9e-l-3-7" value="" style="html=1;points=[[0,0,0,0,5],[0,1,0,0,-5],[1,0,0,0,5],[1,1,0,0,-5]];perimeter=orthogonalPerimeter;outlineConnect=0;targetShapes=umlLifeline;portConstraint=eastwest;newEdgeStyle={&quot;curved&quot;:0,&quot;rounded&quot;:0};" parent="1" vertex="1">
          <mxGeometry x="80" y="150" width="10" height="383" as="geometry" />
        </mxCell>
        <mxCell id="hLMMLVdRwYM_Ab9e-l-3-8" value="" style="html=1;points=[[0,0,0,0,5],[0,1,0,0,-5],[1,0,0,0,5],[1,1,0,0,-5]];perimeter=orthogonalPerimeter;outlineConnect=0;targetShapes=umlLifeline;portConstraint=eastwest;newEdgeStyle={&quot;curved&quot;:0,&quot;rounded&quot;:0};" parent="1" vertex="1">
          <mxGeometry x="215" y="150" width="10" height="382" as="geometry" />
        </mxCell>
        <mxCell id="hLMMLVdRwYM_Ab9e-l-3-9" value="back: Backend API" style="rounded=0;whiteSpace=wrap;html=1;" parent="1" vertex="1">
          <mxGeometry x="360" y="20" width="120" height="60" as="geometry" />
        </mxCell>
        <mxCell id="hLMMLVdRwYM_Ab9e-l-3-10" value="" style="html=1;points=[[0,0,0,0,5],[0,1,0,0,-5],[1,0,0,0,5],[1,1,0,0,-5]];perimeter=orthogonalPerimeter;outlineConnect=0;targetShapes=umlLifeline;portConstraint=eastwest;newEdgeStyle={&quot;curved&quot;:0,&quot;rounded&quot;:0};" parent="1" vertex="1">
          <mxGeometry x="415" y="160" width="10" height="374" as="geometry" />
        </mxCell>
        <mxCell id="hLMMLVdRwYM_Ab9e-l-3-11" value="db: База данных" style="rounded=0;whiteSpace=wrap;html=1;" parent="1" vertex="1">
          <mxGeometry x="560" y="20" width="120" height="60" as="geometry" />
        </mxCell>
        <mxCell id="hLMMLVdRwYM_Ab9e-l-3-12" value="" style="html=1;points=[[0,0,0,0,5],[0,1,0,0,-5],[1,0,0,0,5],[1,1,0,0,-5]];perimeter=orthogonalPerimeter;outlineConnect=0;targetShapes=umlLifeline;portConstraint=eastwest;newEdgeStyle={&quot;curved&quot;:0,&quot;rounded&quot;:0};" parent="1" vertex="1">
          <mxGeometry x="615" y="160" width="10" height="373" as="geometry" />
        </mxCell>
        <mxCell id="hLMMLVdRwYM_Ab9e-l-3-13" value="" style="endArrow=classic;html=1;rounded=0;" parent="1" edge="1">
          <mxGeometry width="50" height="50" relative="1" as="geometry">
            <mxPoint x="90" y="190" as="sourcePoint" />
            <mxPoint x="215" y="190" as="targetPoint" />
            <Array as="points">
              <mxPoint x="170" y="190" />
            </Array>
          </mxGeometry>
        </mxCell>
        <mxCell id="hLMMLVdRwYM_Ab9e-l-3-14" value="перейтиКФормеПитСред()" style="edgeLabel;html=1;align=center;verticalAlign=middle;resizable=0;points=[];" parent="hLMMLVdRwYM_Ab9e-l-3-13" vertex="1" connectable="0">
          <mxGeometry x="-0.28" relative="1" as="geometry">
            <mxPoint x="15" y="30" as="offset" />
          </mxGeometry>
        </mxCell>
        <mxCell id="hLMMLVdRwYM_Ab9e-l-3-15" value="ref" style="shape=umlFrame;whiteSpace=wrap;html=1;pointerEvents=0;labelBackgroundColor=default;" parent="1" vertex="1">
          <mxGeometry x="61" y="270" width="609" height="63" as="geometry" />
        </mxCell>
        <mxCell id="hLMMLVdRwYM_Ab9e-l-3-16" value="добавитьПитСреду()" style="text;html=1;align=center;verticalAlign=middle;resizable=0;points=[];autosize=1;strokeColor=none;fillColor=none;" parent="1" vertex="1">
          <mxGeometry x="247" y="291" width="135" height="26" as="geometry" />
        </mxCell>
        <mxCell id="hLMMLVdRwYM_Ab9e-l-3-17" value="opt" style="shape=umlFrame;whiteSpace=wrap;html=1;pointerEvents=0;labelBackgroundColor=default;" parent="1" vertex="1">
          <mxGeometry x="61" y="360" width="609" height="63" as="geometry" />
        </mxCell>
        <mxCell id="hLMMLVdRwYM_Ab9e-l-3-18" value="редактироватьПитСреду()" style="text;html=1;align=center;verticalAlign=middle;resizable=0;points=[];autosize=1;strokeColor=none;fillColor=none;" parent="1" vertex="1">
          <mxGeometry x="242" y="379.5" width="167" height="26" as="geometry" />
        </mxCell>
        <mxCell id="hLMMLVdRwYM_Ab9e-l-3-19" value="opt" style="shape=umlFrame;whiteSpace=wrap;html=1;pointerEvents=0;labelBackgroundColor=default;" parent="1" vertex="1">
          <mxGeometry x="61" y="450" width="609" height="63" as="geometry" />
        </mxCell>
        <mxCell id="hLMMLVdRwYM_Ab9e-l-3-20" value="удалитьПитСреду()" style="text;html=1;align=center;verticalAlign=middle;resizable=0;points=[];autosize=1;strokeColor=none;fillColor=none;" parent="1" vertex="1">
          <mxGeometry x="267" y="469.5" width="127" height="26" as="geometry" />
        </mxCell>
      </root>
    </mxGraphModel>
  </diagram>
</mxfile>
